<?xml version="1.0" encoding="UTF-8" standalone="no"?>
<!-- Created with Inkscape (http://www.inkscape.org/) -->

<svg
   xmlns:dc="http://purl.org/dc/elements/1.1/"
   xmlns:cc="http://creativecommons.org/ns#"
   xmlns:rdf="http://www.w3.org/1999/02/22-rdf-syntax-ns#"
   xmlns:svg="http://www.w3.org/2000/svg"
   xmlns="http://www.w3.org/2000/svg"
   xmlns:sodipodi="http://sodipodi.sourceforge.net/DTD/sodipodi-0.dtd"
   xmlns:inkscape="http://www.inkscape.org/namespaces/inkscape"
   width="512"
   height="512"
   id="svg2"
   version="1.1"
   inkscape:version="0.48.4 r9939"
   sodipodi:docname="level6color.svg">
  <defs
     id="defs4" />
  <sodipodi:namedview
     id="base"
     pagecolor="#ffffff"
     bordercolor="#666666"
     borderopacity="1.0"
     inkscape:pageopacity="0.0"
     inkscape:pageshadow="2"
     inkscape:zoom="1.1074219"
     inkscape:cx="146.28572"
     inkscape:cy="256"
     inkscape:document-units="px"
     inkscape:current-layer="layer1"
     showgrid="false"
     inkscape:window-width="1276"
     inkscape:window-height="782"
     inkscape:window-x="0"
     inkscape:window-y="14"
     inkscape:window-maximized="0" />
  <metadata
     id="metadata7">
    <rdf:RDF>
      <cc:Work
         rdf:about="">
        <dc:format>image/svg+xml</dc:format>
        <dc:type
           rdf:resource="http://purl.org/dc/dcmitype/StillImage" />
        <dc:title></dc:title>
      </cc:Work>
    </rdf:RDF>
  </metadata>
  <g
     inkscape:label="Layer 1"
     inkscape:groupmode="layer"
     id="layer1"
     transform="translate(0,-540.36218)">
    <path
       style="fill:#000000"
       d=""
       id="path3133"
       inkscape:connector-curvature="0" />
    <path
       style="color:#000000;fill:#ffb410;fill-opacity:1;fill-rule:nonzero;stroke:none;stroke-width:6;marker:none;visibility:visible;display:inline;overflow:visible;enable-background:accumulate"
       d="m 387.25,617.59375 c -14.51566,6.95587 -24.18686,20.87411 -36.87616,30.56636 -10.56019,8.70425 -19.2754,19.44116 -29.26911,28.62535 -32.16338,22.43535 -53.80896,60.08113 -54.35473,99.65204 0.17746,15.82768 0.72962,32.06598 5.53125,47.1875 3.85837,7.34629 13.13176,7.64041 19.0625,12.5625 6.02155,4.10472 13.29399,2.19004 19.375,-0.5625 8.40585,-2.91161 16.34027,-6.8613 24.46875,-10.46875 -2.44999,-6.04136 -5.68811,-14.0093 -2.0625,-19.90625 3.22373,4.43193 3.37107,11.75218 9.40625,13.90625 7.95695,2.89511 14.39284,-4.76493 20.64793,-8.34439 13.05693,-9.84267 24.48524,-22.25789 32.75832,-36.37436 7.88421,-18.42946 4.83245,-39.1424 5.44438,-58.68561 -1.51458,-30.324 -7.35546,-60.3678 -7.00688,-90.78314 -0.11979,-3.85796 -2.73189,-8.09202 -7.125,-7.375 z m -52.375,113.375 c 1.36665,1.77896 1.88983,6.6707 -0.0937,7.875 -5.79945,0.70239 -2.65944,-6.50976 0.0937,-7.875 z m -12.6875,29.96875 c 5.84638,0.71118 14.52119,-1.16112 17.5625,5.25 0.80929,4.01754 -4.22173,0.17787 -6.125,1 -3.89567,-0.86693 -10.59533,-1.1526 -11.625,-5.65625 0.2162,-0.0338 -0.028,-0.53831 0.1875,-0.59375 z m -22.53125,8.875 c 1.04231,0.97219 0.48542,3.22159 -0.8125,1.5625 0.13849,-0.55901 0.47575,-1.20862 0.8125,-1.5625 z m 10.21875,19.71875 c 2.69056,0.29138 -0.69372,4.12453 -2.34375,2.46875 -2.6567,-0.16914 -4.10589,0.0412 -0.9375,-1.3125 0.96599,-1.0346 1.97935,-0.99194 3.28125,-1.15625 z m -19.53125,3.75 c 1.93846,0.4307 6.32552,-0.0447 7.03125,0.3125 -3.81505,1.59001 -3.08838,8.25728 -8.34375,6.96875 -2.39338,-0.007 -5.00716,-2.019 -2.46875,-4.21875 0.97241,-1.19039 2.20356,-2.95713 3.78125,-3.0625 z m 20.8125,17.34375 c 1.71763,1.5854 1.36551,6.9792 -1.8125,4.53125 -5.771,-0.38806 -3.04349,-2.19968 0.59375,-3.90625 0.41551,-0.0239 0.79649,-0.58021 1.21875,-0.625 z m -96.6875,12.28125 c -34.73099,-0.89607 -71.0319,9.19107 -95.875,34.15625 -24.372671,22.83465 -43.696681,50.73668 -63.705867,77.30417 -3.557961,6.04966 -10.029454,13.10362 -7.419133,20.57083 4.962394,7.41013 15.458346,4.68345 22.996626,6.14458 29.370049,2.67914 58.660264,7.58112 88.253274,6.21634 24.19741,0.0329 48.23699,-5.62615 69.46885,-17.14217 15.19185,-7.5209 27.54327,-19.99732 34.3125,-35.59375 6.17019,-11.67631 12.96797,-24.71631 11.28125,-38.3125 -3.48614,-10.0738 -15.09641,-12.91661 -23.875,-15.28125 0.67864,-5.91585 8.03939,-9.68628 6.5625,-16.34375 -1.67805,-9.26454 -11.51176,-13.68524 -18.96875,-17.71875 -7.21531,-3.06527 -15.18487,-4.21808 -23.03125,-4 z m 118.09375,17.3125 c -13.02705,2.15869 -28.48245,6.25915 -34.40625,19.3125 -5.30482,9.66016 -16.47374,18.61713 -13.96875,30.75 0.92874,6.79858 7.76623,11.91684 14.5,9.84375 3.47467,-0.21876 8.72975,-3.02905 11.21875,-1.3125 -3.33853,7.09986 -14.14264,5.73406 -17.21875,13.4375 -3.39952,6.47813 0.76398,13.81973 3.03125,20 8.42592,17.33444 26.18115,26.92402 42.33424,35.7863 29.15292,15.13414 62.51047,17.91213 93.97229,25.75724 12.87779,2.36875 25.91134,5.42787 39.00597,5.11271 6.35637,-1.30751 9.12692,-9.59171 5.06666,-14.57185 -16.39529,-36.75887 -30.41348,-75.40681 -55.87916,-106.8969 -16.02114,-16.99024 -36.02818,-32.73351 -59.78125,-36.125 -7.62915,-0.30751 -8.68541,8.87641 -12.875,13.125 -2.57971,1.37354 -2.79425,-4.23593 -3.78125,-5.6875 -1.22934,-5.2469 -5.43773,-9.59969 -11.21875,-8.53125 z m -99.09375,8.875 c 1.64866,2.27039 -0.99966,7.48668 -1.5625,7.25 0.016,-2.39716 -0.0977,-5.41021 1.5625,-7.25 z M 203.875,859.4375 c 1.60215,0.54845 0.61309,5.93972 -0.40625,2.34375 -0.13356,-0.74099 -0.37432,-1.94491 0.40625,-2.34375 z M 228,871.28125 c -0.72648,5.34121 1.95453,10.10922 4.3125,14.46875 0.94022,3.46624 -2.587,10.26532 -6.59375,6.78125 -3.93427,-5.05042 -1.80618,-12.38272 -2.75,-18.40625 0.34291,-1.84507 4.78956,-4.48289 5.03125,-2.84375 z m 94.65625,-0.21875 c 3.46973,1.42076 1.18164,6.33586 -1.75,7.0625 -3.25361,2.31726 -9.26107,4.93356 -12.3125,1.59375 -1.09216,-5.63844 6.02259,-6.68573 9.78125,-8 1.43722,-0.36734 2.81671,-0.60252 4.28125,-0.65625 z M 197.8125,878.375 c 2.54401,0.0638 6.21979,4.21711 4.03125,6.03125 -2.89522,0.15324 -7.05935,-3.82984 -4.9375,-5.9375 0.3112,0.025 0.61436,-0.0384 0.90625,-0.0937 z m -24.375,6.875 c -0.81546,5.00902 -6.14298,8.68496 -5.03125,14.1875 -3.6435,-3.98101 2.36023,-8.67563 4.03125,-12.28125 0.32323,-0.49409 0.88101,-1.88913 1,-1.90625 z m 80.71875,3.34375 c 0.7815,0.92339 0.75135,5.78917 -0.5625,3.6875 -0.37881,-1.19007 -0.0676,-2.677 0.5625,-3.6875 z m 94.71875,1.3125 c 0.40023,3.96285 -4.20687,7.84401 -5.6875,11.75 -1.74461,2.97174 -4.00497,7.8924 -5.5,9.8125 0.68507,-6.77187 -2.34086,-17.37431 6.03125,-20.3125 1.64185,-0.65722 3.45502,-1.0728 5.15625,-1.25 z m 24.25,1.15625 c 3.93151,-0.76976 -0.94928,2.85585 -1.4375,2.65625 0.10651,-1.02837 0.25501,-2.40037 1.4375,-2.65625 z M 186.53125,902.25 c 3.85054,1.24857 -0.52159,6.70833 -3.09375,7.5625 -1.50838,0.387 -4.32264,-3.07005 -4.78125,-3.375 2.93368,-0.8108 4.94923,-3.46696 7.875,-4.1875 z m -36.15625,0.46875 c 1.06177,1.19735 2.03146,4.02456 1,4.90625 -1.45797,-1.40419 -4.2933,-3.8276 -1,-4.90625 z m 219.125,12.875 c 4.93126,2.48716 9.16938,6.84283 13.84375,9.4375 2.00404,4.67837 3.79396,11.24548 9.25,12.78125 -3.72512,-0.0257 -6.43759,2.76211 -9.59375,4.0625 1.31392,-8.60935 -0.68112,-20.97524 -10.75,-22.9375 -1.74799,-0.10961 -7.65401,0.1419 -5.5625,-2.90625 0.83607,-0.40042 1.91164,-0.82579 2.8125,-0.4375 z m -266.75,12.375 c 0.79238,3.57994 -3.429998,3.82524 -4.78125,1.375 0.02302,-1.48771 3.72247,-0.92334 4.78125,-1.375 z m 35.59375,1.625 c 3.02845,0.0199 1.8482,6.92338 -0.40625,2.34375 -0.53059,-1.03038 -1.67428,-2.50679 0.40625,-2.34375 z m 223.4375,3.65625 c -0.1003,1.72898 -3.11476,1.30347 -1.09375,0.5625 0.21938,-0.0597 1.06387,-0.73776 1.09375,-0.5625 z"
       id="path8139"
       inkscape:connector-curvature="0" />
    <path
       style="fill:#000000"
       d="m 489.8124,1022.5974 c -1.52541,-0.5058 -10.26175,-3.676 -19.41413,-7.0451 -19.0765,-7.0222 -30.14448,-9.6672 -47.14858,-11.2675 -23.21172,-2.1845 -69.4727,-14.31767 -85.97681,-22.54964 -14.307,-7.1361 -38.97144,-24.0355 -44.84819,-30.72876 -2.91321,-3.31797 -7.21531,-10.75968 -9.5602,-16.53716 -2.34492,-5.77746 -5.41488,-10.50448 -6.82216,-10.50448 -1.40729,0 -2.55871,0.78461 -2.55871,1.74358 0,3.03189 -20.40382,23.92395 -29.09029,29.78638 -4.58507,3.09442 -18.01221,8.83864 -29.83808,12.76493 -32.5584,10.80964 -76.29956,14.06071 -113.02528,8.40058 -20.56469,-3.1694 -40.438163,-3.46789 -50.846498,-0.76371 -4.067722,1.05685 -11.140008,2.80037 -15.716193,3.87453 -4.576186,1.07415 -11.604375,4.34978 -15.618199,7.27918 -8.481123,6.18978 -12.2114817,6.63078 -16.4520987,1.94492 -6.333644,-6.99859 -2.44114903,-15.85614 13.2502117,-30.15149 5.987537,-5.45484 13.19012,-13.60004 16.00574,-18.10044 2.81564,-4.50039 9.568629,-13.42734 15.006653,-19.83762 5.438026,-6.4103 14.156834,-18.12077 19.375144,-26.02328 5.2183,-7.90251 10.25558,-14.65249 11.19394,-14.99993 0.93837,-0.34745 4.98325,-5.45751 8.98864,-11.35569 8.37724,-12.33602 22.16816,-24.70267 37.99754,-34.07328 19.76358,-11.69957 28.23731,-14.75858 56.32057,-20.33178 21.21322,-4.20979 63.89276,-1.36373 67.51823,4.50241 0.61144,0.98932 2.83298,1.79874 4.93681,1.79874 3.48561,0 3.70169,-0.69747 2.43462,-7.8581 -0.76474,-4.32195 -2.04159,-11.60225 -2.8374,-16.17844 -1.92272,-11.05638 -0.29142,-38.12715 2.78551,-46.22409 1.35254,-3.55926 4.15783,-11.96402 6.23398,-18.67723 4.36309,-14.10816 14.56892,-32.32602 23.88798,-42.64111 3.56297,-3.94378 14.47796,-13.11808 24.25553,-20.38736 39.13729,-29.09716 68.51835,-56.38487 81.24873,-75.45989 16.62323,-24.90804 21.40823,-28.43333 26.97389,-19.87271 2.4281,3.73469 2.21937,5.95665 -2.04094,21.72534 -9.12569,33.7769 -9.66198,40.70136 -6.08593,78.58096 1.34407,14.23701 2.50906,40.8621 2.58885,59.16684 l 0.14514,33.28135 -7.05321,14.77327 c -6.86122,14.37102 -21.77736,31.68135 -34.54847,40.0938 -4.08384,2.69005 -4.29926,3.35215 -1.84896,5.6826 1.52539,1.45079 6.93984,4.30729 12.03213,6.3478 11.71294,4.69347 44.49987,29.15923 51.78253,38.64039 3.03681,3.95359 7.91752,10.94611 10.846,15.53897 2.9285,4.59285 7.22518,10.6176 9.54818,13.38833 2.323,2.77071 5.18689,8.17893 6.36421,12.01827 4.22748,13.78618 24.88396,58.94785 31.34074,68.52091 C 502.08592,996.51315 512,1013.4406 512,1015.8104 c 0,6.2908 -12.31857,10.0589 -22.18757,6.787 z m -16.64068,-31.43001 c 0,-1.68191 -2.91212,-8.26535 -6.47138,-14.62989 -3.55925,-6.36456 -6.47137,-12.98194 -6.47137,-14.70533 0,-1.72338 -2.842,-8.66047 -6.31558,-15.41575 -3.47357,-6.75531 -8.25703,-16.85854 -10.6299,-22.45166 -2.37286,-5.59311 -10.00629,-18.73895 -16.96314,-29.21296 -9.78744,-14.73565 -14.91163,-20.54607 -22.65146,-25.68503 -5.50144,-3.65275 -10.00262,-7.22907 -10.00262,-7.94737 0,-2.24397 -27.08512,-14.81112 -31.92138,-14.81112 -3.55251,0 -4.83033,1.17335 -5.62952,5.16929 -0.60816,3.04085 -3.06904,6.25851 -5.97661,7.8146 -4.57682,2.44943 -5.20182,2.32535 -8.44207,-1.67622 -1.92463,-2.37683 -3.49934,-5.9195 -3.49934,-7.87261 0,-5.46699 -3.55846,-5.7002 -17.58662,-1.15254 -11.71289,3.79711 -13.2671,4.89329 -16.61921,11.72144 -2.03386,4.14291 -6.42045,10.79919 -9.74798,14.79172 -4.92321,5.9071 -5.83395,8.29222 -4.88986,12.80601 1.69047,8.08217 2.85959,8.62767 12.36162,5.76799 10.82286,-3.25719 15.54476,-0.83185 13.58471,6.97762 -0.90906,3.62199 -3.47683,5.953 -9.31379,8.455 -4.43228,1.8999 -8.52284,4.20537 -9.09014,5.12328 -1.40611,2.27516 2.58233,14.8446 7.09544,22.36104 3.17891,5.29436 12.52191,12.41658 32.41676,24.71143 10.95243,6.76852 33.52438,14.52401 49.86213,17.13216 9.66084,1.54224 22.14135,4.11369 27.73446,5.71432 10.39222,2.97404 22.61329,5.40156 40.6772,8.07992 16.35134,2.42441 18.48965,2.30119 18.48965,-1.06534 z m -54.49348,-28.66463 c -4.50462,-3.54332 -4.6977,-4.17576 -2.07562,-6.79783 2.22872,-2.22874 4.0584,-2.4805 7.98678,-1.09895 6.20853,2.1834 7.57595,7.24356 2.66737,9.87055 -2.83448,1.51695 -4.68084,1.09214 -8.57853,-1.97377 z m -40.99462,-17.30253 c -0.59116,-1.5406 -0.62813,-4.50946 -0.082,-6.59745 0.54601,-2.08801 0.14236,-6.23576 -0.89694,-9.21719 -1.58772,-4.55453 -2.88936,-5.42083 -8.14498,-5.42083 -5.22802,0 -6.45765,-0.80635 -7.48764,-4.91009 -0.9078,-3.61698 -0.33706,-5.56475 2.16714,-7.39585 5.07563,-3.71139 9.39565,-3.02543 13.45614,2.13664 1.99981,2.54232 4.87044,4.62241 6.37919,4.62241 3.62421,0 6.39088,3.55321 7.17898,9.21994 0.51813,3.72555 1.97227,4.81293 7.66704,5.73333 8.34792,1.34925 11.47143,3.98262 9.82207,8.28081 -0.97972,2.55309 -2.73028,2.93519 -9.31343,2.03286 -5.93098,-0.81291 -8.71146,-0.38277 -10.35921,1.60266 -2.93396,3.53522 -9.0158,3.48414 -10.38627,-0.0872 z m -22.65152,-7.9301 c -2.07215,-3.87184 -0.81646,-6.39124 4.60732,-9.2441 2.8575,-1.50302 4.43756,-1.47858 6.00913,0.093 3.2536,3.2536 2.54555,8.43719 -1.44415,10.57241 -5.06868,2.71266 -7.1309,2.39311 -9.1723,-1.4213 z M 331.73853,916.2305 c -0.48999,-1.33926 -0.27724,-7.84326 0.47277,-14.45331 1.31054,-11.55023 1.6323,-12.14955 8.26245,-15.38959 3.94716,-1.92893 8.49585,-2.86445 10.63153,-2.18662 5.46283,1.73383 4.84548,10.28871 -1.21431,16.82731 -2.72089,2.93588 -5.45459,7.84157 -6.0749,10.90153 -0.87753,4.32885 -2.244,5.69363 -6.15723,6.14963 -2.93379,0.34189 -5.40061,-0.42852 -5.92031,-1.84895 z m 35.42594,-17.53491 c -2.19283,-2.19283 -1.30736,-9.34635 1.43902,-11.62564 3.75915,-3.11981 11.03316,-1.66248 11.80098,2.3643 1.20232,6.30569 -9.03482,13.46652 -13.24,9.26134 z m -61.78623,-12.93464 c -1.27116,-0.51292 -2.3112,-3.77111 -2.3112,-7.24041 0,-5.64966 0.85513,-6.70977 8.19553,-10.16017 10.62335,-4.99356 15.9637,-4.18228 18.27113,2.7757 1.60126,4.82854 1.16413,5.97763 -4.04452,10.63155 -5.57925,4.98505 -13.67118,6.59183 -20.11094,3.99333 z m -105.85317,70.39707 c 8.64389,-2.70218 16.7505,-5.74002 18.01465,-6.75072 1.26416,-1.01072 7.09978,-4.10833 12.96805,-6.88356 11.2323,-5.31205 17.54171,-12.05894 25.50474,-27.27324 2.54786,-4.86798 5.37262,-10.09895 6.27724,-11.62434 0.90461,-1.52539 3.0639,-7.63776 4.79843,-13.58302 3.05865,-10.48383 3.04347,-10.95746 -0.50346,-15.71619 -2.49505,-3.34754 -5.94573,-5.22096 -10.85962,-5.89593 -3.96137,-0.54411 -8.24253,-1.63324 -9.5137,-2.42031 -3.52261,-2.18109 -2.75758,-9.4805 1.38673,-13.23105 4.9435,-4.47381 4.72411,-10.90187 -0.46225,-13.54422 -2.28809,-1.16573 -6.37376,-3.90224 -9.07928,-6.0811 -4.11618,-3.31495 -7.92058,-4.07524 -23.30789,-4.65808 -25.73332,-0.97469 -45.47134,3.34728 -70.69257,15.47935 -12.46615,5.99656 -43.99995,37.31025 -56.48556,56.09127 -4.65516,7.00236 -9.24949,13.21707 -10.2096,13.81045 -0.96012,0.59339 -6.19376,7.09361 -11.63034,14.44494 -18.557445,25.09342 -18.479678,27.05832 1.07325,27.11151 7.40465,0.0201 19.28724,0.95053 26.40575,2.06755 26.31843,4.12979 39.43716,5.00014 64.71374,4.29345 21.49821,-0.60105 28.5492,-1.55641 41.60169,-5.63676 z M 134.8537,936.94989 c -3.99963,-3.99964 -4.38115,-5.46576 -2.618,-10.06046 1.32269,-3.44689 8.28072,-3.87585 11.45066,-0.70591 3.42351,3.42353 2.62768,10.37502 -1.4368,12.55027 -2.90346,1.55388 -4.42509,1.18687 -7.39586,-1.7839 z m -38.40837,-1.94895 c -7.95097,-3.1959 -3.99815,-12.88514 5.25662,-12.88514 7.09147,0 9.52002,6.68454 4.31836,11.88619 -3.27588,3.2759 -3.7795,3.32843 -9.57498,0.99895 z m 20.54341,-11.9648 c -1.89382,-4.93518 0.98149,-12.01412 4.87984,-12.01412 4.50119,0 6.96832,8.07768 3.678,12.04228 -2.93697,3.53882 -7.19443,3.52483 -8.55784,-0.0281 z m 59.79822,-10.68204 c -2.23953,-2.31813 -6.33702,-5.20194 -9.10551,-6.40848 -6.9724,-3.03863 -8.61858,-10.51116 -3.51283,-15.94598 2.15823,-2.29733 3.92406,-5.47753 3.92406,-7.0671 0,-1.58955 1.24805,-3.9259 2.77344,-5.19187 3.88218,-3.22192 8.32035,0.72313 8.32035,7.39586 0,2.80175 -1.24807,6.12988 -2.77346,7.39585 -3.47775,2.88627 -3.63347,9.24481 -0.22639,9.24481 1.40088,0 3.58284,-1.24805 4.8488,-2.77344 4.71565,-5.68201 12.94275,-2.00635 12.94275,5.78248 0,3.85769 -7.68873,11.78268 -11.43142,11.78268 -0.92834,0 -3.52024,-1.89667 -5.75979,-4.21481 z m -30.74765,-2.50592 c -4.74317,-6.02995 -4.74468,-6.672 -0.0259,-10.94236 2.85931,-2.58767 4.56046,-2.96873 6.8384,-1.53183 4.55951,2.87605 6.25058,11.28047 2.93655,14.59447 -3.81523,3.81523 -5.34117,3.48335 -9.749,-2.12028 z m 76.03616,-12.83225 c -2.83378,-1.98487 -4.15365,-4.78177 -4.14449,-8.78258 0.007,-3.22866 -0.1788,-8.76001 -0.41368,-12.29195 -0.35452,-5.33069 0.40651,-6.82539 4.47953,-8.79812 4.32647,-2.09549 4.79645,-3.19788 3.97488,-9.32313 -1.21177,-9.03454 4.64329,-17.32583 9.95455,-14.09649 4.84559,2.94621 5.11409,9.17914 0.71649,16.63248 -4.50751,7.63967 -4.96906,15.99165 -1.06289,19.23349 3.93883,3.26893 3.43309,11.53742 -0.99652,16.29204 -4.48002,4.80872 -6.94295,5.03208 -12.50787,1.13426 z m 28.39289,0.43828 c -4.05791,-2.96723 -3.20066,-12.10533 1.39823,-14.90465 2.66981,-1.62509 3.88128,-1.31187 6.00913,1.55363 5.98637,8.06167 0.0331,18.79169 -7.40736,13.35102 z m -55.20929,-9.89199 c -4.27589,-2.24807 -5.09042,-3.76109 -4.62242,-8.58645 0.45529,-4.69451 1.49117,-5.96533 5.21735,-6.40056 8.73183,-1.01989 16.32604,10.26054 10.69713,15.88945 -2.73514,2.73513 -4.66697,2.58072 -11.29206,-0.90244 z m 5.31889,-20.12659 c -5.62463,-5.62462 -2.53281,-14.45413 4.70309,-13.43102 3.44407,0.48696 4.53855,1.91673 4.98353,6.51029 0.72212,7.45417 -5.03789,11.56947 -9.68662,6.92073 z m 111.03662,-37.87136 c 4.95969,-2.0907 10.88165,-4.56532 13.15993,-5.49912 3.61167,-1.48036 3.87926,-2.27515 2.08887,-6.20461 -1.36826,-3.00301 -1.4934,-6.87479 -0.37502,-11.60379 1.38453,-5.85432 2.47567,-7.09705 6.23146,-7.09705 3.69778,0 5.06333,1.47612 7.26949,7.8581 1.49404,4.32195 3.74046,7.8581 4.99206,7.8581 5.42767,0 22.99847,-12.95235 32.20736,-23.74175 17.29637,-20.26489 17.65496,-21.21673 18.78447,-49.86067 0.948,-24.04149 -0.22712,-40.44924 -5.98306,-83.53796 -1.1531,-8.63203 -1.55694,-19.61814 -0.8974,-24.41355 0.65955,-4.79542 0.65455,-9.60014 -0.0115,-10.67716 -0.70851,-1.14639 -5.56649,2.29447 -11.7178,8.29959 -5.77917,5.64183 -18.61988,17.36655 -28.53495,26.05496 -9.91508,8.68841 -18.0274,16.95836 -18.0274,18.37768 0,1.4193 -2.44096,3.84284 -5.42433,5.38559 -13.93169,7.20436 -36.17973,32.6835 -41.98642,48.08415 -9.29778,24.65978 -10.42396,29.05313 -11.32006,44.1603 -1.09579,18.47369 2.50374,46.39341 6.49591,50.38559 1.41734,1.41735 4.05269,2.57701 5.8563,2.57701 1.80361,0 4.78524,1.66406 6.62587,3.69792 4.24687,4.69275 9.24785,4.66762 20.56581,-0.10331 z m -3.85535,-9.02858 c -0.662,-1.07115 -3.86065,-1.74277 -7.10808,-1.49247 -4.81097,0.37081 -5.90444,-0.22506 -5.90444,-3.21751 0,-2.21593 1.46672,-3.93922 3.69792,-4.34478 2.03386,-0.36966 5.49149,-2.32442 7.68365,-4.3439 3.29119,-3.03194 4.67869,-3.30089 7.9625,-1.54344 5.64011,3.0185 4.76807,15.47943 -1.14221,16.32167 -2.19213,0.31238 -4.52733,-0.30843 -5.18934,-1.37957 z m -23.45558,-15.61924 c -5.81407,-2.89862 -6.22368,-6.82308 -1.35779,-13.00907 3.48041,-4.42463 4.98714,-5.00529 10.61706,-4.09168 4.59224,0.7452 7.53509,0.18323 9.80703,-1.87289 2.06175,-1.86585 4.88521,-2.52617 7.73897,-1.80992 10.72813,2.69259 5.50014,15.28353 -5.5982,13.48251 -4.98168,-0.80843 -6.01042,-0.34248 -6.49283,2.94081 -0.72277,4.91895 -8.79541,7.3111 -14.71424,4.36024 z m 9.66976,-30.43526 c -2.85549,-5.33554 3.68347,-13.20657 8.51556,-10.25028 1.99035,1.21771 3.35152,4.2214 3.35152,7.39586 0,4.42377 -0.8552,5.44418 -4.96029,5.91841 -3.43127,0.39643 -5.56032,-0.54806 -6.90679,-3.06399 z m 34.05464,-2.8352 c -10.11002,-2.82926 -12.01826,-4.33918 -12.01826,-9.50963 0,-6.12492 4.80512,-8.12252 15.5607,-6.46891 11.62663,1.7875 16.11817,7.22126 12.90042,15.60657 -1.26446,3.29509 -5.6435,3.39416 -16.44286,0.37197 z m -1.04383,-30.95168 c -1.81435,-3.39012 -1.61708,-5.24537 1.09279,-10.27728 5.77092,-10.71596 14.74082,-5.82027 13.4668,7.35007 -0.49914,5.16007 -1.3318,5.9972 -6.4593,6.49391 -4.54342,0.44014 -6.39138,-0.37355 -8.10029,-3.5667 z M 342.10754,715.712 c -4.61002,-3.22899 -4.99671,-6.72148 -1.10205,-9.95377 2.29806,-1.90722 3.47351,-1.72837 6.47137,0.98467 7.27109,6.58024 2.52915,14.50139 -5.36932,8.9691 z m 13.19273,-26.74903 c -4.84902,-1.80248 -5.57324,-8.12356 -1.12623,-9.83004 5.06038,-1.94185 9.90881,0.66016 9.90881,5.3178 0,5.08535 -3.03964,6.64701 -8.78258,4.51224 z"
       id="path3639"
       inkscape:connector-curvature="0" />
  </g>
</svg>
