<?xml version="1.0" encoding="UTF-8" standalone="no"?>
<!DOCTYPE svg PUBLIC "-//W3C//DTD SVG 1.0//EN" "http://www.w3.org/TR/2001/REC-SVG-20010904/DTD/svg10.dtd">
<svg width="632" height="600" viewBox="0 0 632 600" xmlns="http://www.w3.org/2000/svg" xmlns:svg="http://www.w3.org/2000/svg" xmlns:xlink="http://www.w3.org/1999/xlink">
<title>Interlaced pentagrams and pentagon pattern</title>
<g transform="translate(10,583) scale(0.255,-0.255)">
<defs>
<path id="OuterOutl" d="M-13.9697,1051.05 H354.57 L430.602,1285.06 L395.387,1393.44 L487.579,1460.42 L563.611,1694.42 L265.456,1911.04 H633.996 L747.879,2261.54 L861.761,1911.04 H1107.81 L1200,1978.02 L1292.19,1911.04 H1538.24 L1652.12,2261.54 L1766,1911.04 H2134.54 L1836.39,1694.42 L1912.42,1460.42 L2004.61,1393.44 L1969.4,1285.06 L2045.43,1051.05 H2413.97 L2115.82,834.436 L2229.7,483.933 L1931.54,700.555 L1732.49,555.935 L1697.28,447.556 H1583.32 L1384.27,302.935 L1498.15,-47.5703 L1200,169.057 L901.846,-47.5703 L1015.73,302.935 L816.679,447.556 H702.722 L667.508,555.935 L468.455,700.555 L170.3,483.933 L284.185,834.435 L-13.9697,1051.05Z M1391.29,1839.04 L1491.25,1766.42 L1514.84,1839.04 H1391.29Z M932.147,1694.42 L1008.18,1460.42 L1200,1321.05 L1391.82,1460.42 L1467.85,1694.42 L1268.8,1839.04 H1131.2 L932.147,1694.42Z M939.169,447.556 L1039.13,374.932 L1062.72,447.556 H939.169Z M652.724,834.434 L728.756,600.43 L840.07,519.556 H1086.12 L1162.15,753.554 L1088.88,979.055 H851.777 L652.724,834.434Z M1893.37,1051.05 H1969.73 L1931.55,1168.56 L1893.37,1051.05Z M1379.8,1190.42 L1571.62,1051.05 H1817.66 L1893.69,1285.06 L1851.17,1415.92 L1652.12,1560.54 L1453.07,1415.92 L1379.8,1190.42Z M1104.84,1162.92 L1141.19,1051.05 H1258.81 L1295.16,1162.92 L1200,1232.05 L1104.84,1162.92Z M430.274,1051.05 H506.633 L468.454,1168.56 L430.274,1051.05Z M506.307,1285.06 L582.339,1051.05 H828.383 L1020.2,1190.42 L946.933,1415.92 L747.88,1560.54 L548.825,1415.92 L506.307,1285.06Z M1337.28,447.556 L1360.87,374.932 L1460.83,447.556 H1337.28Z M1237.85,753.554 L1313.88,519.556 H1559.93 L1671.24,600.43 L1747.28,834.434 L1548.22,979.055 H1311.12 L1237.85,753.554Z M1164.58,979.055 L1200,870.049 L1235.42,979.055 H1164.58Z M885.156,1839.04 L908.753,1766.42 L1008.71,1839.04 H885.156Z M529.701,745.053 L629.656,672.431 L591.476,789.935 L529.701,745.053Z M950.877,1051.05 H1065.48 L1043.6,1118.42 L950.877,1051.05Z M1261.25,1276.55 L1318.55,1234.92 L1353.97,1343.92 L1261.25,1276.55Z M1713.37,1605.04 L1813.32,1532.42 L1775.14,1649.92 L1713.37,1605.04Z M586.678,1532.42 L686.633,1605.04 L624.857,1649.92 L586.678,1532.42Z M1046.03,1343.92 L1081.45,1234.92 L1138.75,1276.55 L1046.03,1343.92Z M1334.52,1051.05 H1449.12 L1356.4,1118.42 L1334.52,1051.05Z M1770.34,672.431 L1870.3,745.053 L1808.52,789.935 L1770.34,672.431Z M1038.8,140.93 L1138.76,213.554 L1076.98,258.438 L1038.8,140.93Z M1100.37,330.435 L1200,258.051 L1299.63,330.435 L1261.57,447.556 H1138.43 L1100.37,330.435Z M1161.82,519.556 H1238.18 L1200,637.058 L1161.82,519.556Z M1552.49,1721.92 L1652.12,1649.54 L1751.75,1721.92 L1713.69,1839.04 H1590.55 L1552.49,1721.92Z M1490.92,1532.42 L1590.87,1605.04 L1529.1,1649.92 L1490.92,1532.42Z M1613.94,1911.04 H1690.3 L1652.12,2028.54 L1613.94,1911.04Z M1992.79,745.054 L2092.75,672.431 L2054.57,789.938 L1992.79,745.054Z M1831.92,861.935 L1931.55,789.551 L2031.17,861.936 L1993.12,979.055 H1869.97 L1831.92,861.935Z M1670.72,979.055 L1770.67,906.434 L1794.27,979.055 H1670.72Z M648.252,1721.92 L747.88,1649.54 L847.507,1721.92 L809.452,1839.04 H686.306 L648.252,1721.92Z M809.127,1605.04 L909.08,1532.42 L870.901,1649.92 L809.127,1605.04Z M487.05,1839.04 L587.006,1766.42 L610.602,1839.04 H487.05Z M1789.4,1839.04 L1813,1766.42 L1912.95,1839.04 H1789.4Z M368.826,861.936 L468.454,789.551 L568.082,861.935 L530.028,979.055 H406.88 L368.826,861.936Z M605.733,979.055 L629.329,906.434 L729.283,979.055 H605.733Z M307.252,672.431 L407.208,745.054 L345.432,789.938 L307.252,672.431Z M709.7,1911.04 H786.058 L747.879,2028.54 L709.7,1911.04Z M1261.24,213.554 L1361.2,140.93 L1323.02,258.438 L1261.24,213.554Z M207.626,979.055 L307.579,906.434 L331.175,979.055 H207.626Z M2068.83,979.055 L2092.42,906.435 L2192.37,979.055 H2068.83Z"/>
</defs>
<use stroke-width="55.3" stroke="rgb(255,255,255)" stroke-linejoin="round" fill="none" xlink:href="#OuterOutl"/>
<use xlink:href="#OuterOutl"/>
<path fill="rgb(204,235,255)" d="M1590.56,519.556 L1885.61,733.928 L1916.23,711.68 L1651.8,519.556 H1590.56Z M1596.39,1033.05 H1975.57 L1987.27,997.055 H1645.94 L1596.39,1033.05Z M1209.46,666.181 L1228.39,724.43 L1345.56,363.808 L1314.94,341.559 L1209.46,666.181Z M483.766,778.427 L759.906,979.055 H821.153 L514.389,756.178 L483.766,778.427Z M630.706,1667.92 L642.403,1703.92 L918.543,1503.29 L937.469,1445.04 L630.706,1667.92Z M1416.6,1478.42 L1533.77,1839.04 H1571.62 L1466.15,1514.42 L1416.6,1478.42Z M1946.86,778.427 L2247.77,997.055 H2062.98 L2051.28,1033.05 H2358.57 L1977.48,756.178 L1946.86,778.427Z M1557.16,1911.04 L1652.12,2203.29 L1797.68,1755.29 L1767.06,1733.04 L1652.12,2086.79 L1595.02,1911.04 H1557.16Z M320.855,1893.04 H791.906 L803.603,1857.04 H431.651 L581.157,1748.42 L569.46,1712.42 L320.855,1893.04Z M1147.04,1033.05 H1473.9 L1523.45,997.055 H1158.73 L1147.04,1033.05Z M204.538,531.057 L350.101,979.055 H387.954 L273.014,625.307 L422.52,733.929 L453.143,711.68 L204.538,531.057Z M859.006,1051.05 L1154.06,1265.43 L1184.69,1243.18 L920.252,1051.05 H859.006Z M1277.74,1051.05 L1378.74,1361.92 L1428.29,1397.92 L1315.59,1051.05 H1277.74Z M1082.83,276.436 L1094.52,312.432 L1395.44,93.7998 L1338.33,269.561 L1368.96,291.811 L1463.92,-0.439453 L1082.83,276.436Z M1058.91,1129.54 L1089.53,1151.79 L1190.54,840.926 L1171.61,782.676 L1058.91,1129.54Z M1017.64,1431.29 L1312.7,1216.92 L1301.01,1180.92 L1036.57,1373.04 L1017.64,1431.29Z M763.192,1638.41 L1039.33,1839.04 H1100.58 L793.815,1616.16 L763.192,1638.41Z M1138.43,1911.04 L1200,1955.77 L1485.4,1748.42 L1473.7,1712.42 L1200.32,1911.04 H1138.43Z M1534.95,1667.92 L1546.64,1703.92 L1822.79,1503.29 L1841.71,1445.04 L1534.95,1667.92Z M1836.59,1051.05 L1941.01,1372.43 L1921.88,1431.29 L1983.45,1386.56 L1874.44,1051.05 H1836.59Z M1696.02,618.431 L1813.19,979.055 H1851.05 L1745.57,654.431 L1696.02,618.431Z M1319.73,501.556 H1657.65 L1707.72,537.935 L1684.2,465.556 H1331.43 L1319.73,501.556Z M864.845,501.556 H1244.03 L1255.72,465.556 H914.394 L864.845,501.556Z M606.788,801.06 L637.412,823.309 L741.833,501.935 L791.904,465.556 H715.8 L606.788,801.06Z M477.917,1197.68 L496.843,1255.93 L614.017,895.309 L583.394,873.06 L477.917,1197.68Z M416.548,1386.56 L701.945,1593.91 L732.568,1571.66 L459.19,1373.04 L440.065,1314.18 L416.548,1386.56Z M867.61,1893.04 H1194.47 L1244.02,1857.04 H879.307 L867.61,1893.04Z M886.213,1661.04 L916.836,1683.29 L1066.14,1223.79 L1035.51,1201.54 L886.213,1661.04Z M373.496,1051.05 L474.497,1361.91 L524.05,1397.92 L411.348,1051.05 H373.496Z M588.188,1033.05 H1071.33 L1083.03,997.055 H599.885 L588.188,1033.05Z M738.22,571.303 L1033.28,356.93 L1021.58,320.933 L757.145,513.058 L738.22,571.303Z M1105.04,519.556 L1254.34,979.055 H1292.2 L1142.9,519.556 H1105.04Z M1362.25,1136.42 L1373.95,1172.42 L1764.82,888.435 L1753.12,852.435 L1362.25,1136.42Z M1790.46,1661.04 L1821.08,1683.29 L1922.08,1372.44 L1903.16,1314.18 L1790.46,1661.04Z M1215.31,1309.93 L1606.18,1593.91 L1636.81,1571.66 L1245.93,1287.68 L1215.31,1309.93Z M1316.96,1893.04 H1696.15 L1707.84,1857.04 H1366.51 L1316.96,1893.04Z M1667.43,1638.41 L1968.35,1857.04 H1783.55 L1771.85,1893.04 H2079.14 L1698.05,1616.16 L1667.43,1638.41Z M1941.01,1197.68 L1959.94,1255.93 L2077.11,895.31 L2046.49,873.061 L1941.01,1197.68Z M1814.37,807.936 L1826.07,843.936 L2126.99,625.307 L2069.88,801.061 L2100.5,823.311 L2195.46,531.057 L1814.37,807.936Z M1215.31,246.924 L1491.46,447.556 H1552.7 L1245.93,224.677 L1215.31,246.924Z M936.084,-0.439453 L1081.65,447.556 H1119.5 L1004.56,93.7998 L1154.07,202.427 L1184.69,180.181 L936.084,-0.439453Z M351.28,807.938 L362.977,843.936 L639.12,643.305 L658.045,585.059 L351.28,807.938Z M41.4297,1033.05 H512.482 L524.179,997.055 H152.23 L301.731,888.435 L290.034,852.435 L41.4297,1033.05Z M512.354,1478.42 L629.528,1839.04 H667.38 L561.903,1514.42 L512.354,1478.42Z M652.922,1911.04 L747.879,2203.29 L893.441,1755.29 L862.818,1733.04 L747.879,2086.79 L690.774,1911.04 H652.922Z"/>
</g>
</svg>