<svg height="1000" width="1000" xmlns:svgjs="http://svgjs.com/svgjs" xmlns:xlink="http://www.w3.org/1999/xlink" version="1.1" xmlns="http://www.w3.org/2000/svg" id="SvgjsSvg1006"><defs id="SvgjsDefs1007"></defs><rect fill="pink" y="850" x="400" height="150" width="50" id="SvgjsRect1008"></rect><rect fill="pink" y="900" x="350" height="50" width="100" id="SvgjsRect1009"></rect><rect fill="red" y="855" x="405" height="140" width="40" id="SvgjsRect1010"></rect><rect fill="red" y="905" x="355" height="40" width="90" id="SvgjsRect1011"></rect><rect fill="pink" y="250" x="400" height="50" width="150" id="SvgjsRect1012"></rect><rect fill="pink" y="250" x="450" height="100" width="50" id="SvgjsRect1013"></rect><rect fill="red" y="255" x="405" height="40" width="140" id="SvgjsRect1014"></rect><rect fill="red" y="255" x="455" height="90" width="40" id="SvgjsRect1015"></rect><rect fill="pink" y="100" x="300" height="100" width="100" id="SvgjsRect1016"></rect><rect fill="red" y="105" x="305" height="90" width="90" id="SvgjsRect1017"></rect><rect fill="pink" y="200" x="350" height="50" width="150" id="SvgjsRect1018"></rect><rect fill="pink" y="150" x="400" height="100" width="50" id="SvgjsRect1019"></rect><rect fill="red" y="205" x="355" height="40" width="140" id="SvgjsRect1020"></rect><rect fill="red" y="155" x="405" height="90" width="40" id="SvgjsRect1021"></rect><rect fill="pink" y="100" x="650" height="100" width="50" id="SvgjsRect1022"></rect><rect fill="pink" y="150" x="550" height="50" width="150" id="SvgjsRect1023"></rect><rect fill="red" y="105" x="655" height="90" width="40" id="SvgjsRect1024"></rect><rect fill="red" y="155" x="555" height="40" width="140" id="SvgjsRect1025"></rect><rect fill="pink" y="100" x="500" height="150" width="50" id="SvgjsRect1026"></rect><rect fill="pink" y="200" x="500" height="50" width="100" id="SvgjsRect1027"></rect><rect fill="red" y="105" x="505" height="140" width="40" id="SvgjsRect1028"></rect><rect fill="red" y="205" x="505" height="40" width="90" id="SvgjsRect1029"></rect><rect fill="pink" y="50" x="550" height="100" width="100" id="SvgjsRect1030"></rect><rect fill="red" y="55" x="555" height="90" width="90" id="SvgjsRect1031"></rect><rect fill="pink" y="400" x="800" height="100" width="50" id="SvgjsRect1032"></rect><rect fill="pink" y="400" x="800" height="50" width="100" id="SvgjsRect1033"></rect><rect fill="pink" y="350" x="850" height="100" width="50" id="SvgjsRect1034"></rect><rect fill="red" y="405" x="805" height="90" width="40" id="SvgjsRect1035"></rect><rect fill="red" y="405" x="805" height="40" width="90" id="SvgjsRect1036"></rect><rect fill="red" y="355" x="855" height="90" width="40" id="SvgjsRect1037"></rect><rect fill="pink" y="250" x="900" height="150" width="50" id="SvgjsRect1038"></rect><rect fill="pink" y="300" x="850" height="50" width="100" id="SvgjsRect1039"></rect><rect fill="red" y="255" x="905" height="140" width="40" id="SvgjsRect1040"></rect><rect fill="red" y="305" x="855" height="40" width="90" id="SvgjsRect1041"></rect><rect fill="pink" y="150" x="900" height="100" width="50" id="SvgjsRect1042"></rect><rect fill="pink" y="200" x="900" height="50" width="100" id="SvgjsRect1043"></rect><rect fill="pink" y="200" x="950" height="100" width="50" id="SvgjsRect1044"></rect><rect fill="red" y="155" x="905" height="90" width="40" id="SvgjsRect1045"></rect><rect fill="red" y="205" x="905" height="40" width="90" id="SvgjsRect1046"></rect><rect fill="red" y="205" x="955" height="90" width="40" id="SvgjsRect1047"></rect><rect fill="pink" y="150" x="850" height="150" width="50" id="SvgjsRect1048"></rect><rect fill="pink" y="250" x="800" height="50" width="100" id="SvgjsRect1049"></rect><rect fill="red" y="155" x="855" height="140" width="40" id="SvgjsRect1050"></rect><rect fill="red" y="255" x="805" height="40" width="90" id="SvgjsRect1051"></rect><rect fill="pink" y="50" x="800" height="50" width="100" id="SvgjsRect1052"></rect><rect fill="pink" y="50" x="850" height="100" width="50" id="SvgjsRect1053"></rect><rect fill="pink" y="100" x="850" height="50" width="100" id="SvgjsRect1054"></rect><rect fill="red" y="55" x="805" height="40" width="90" id="SvgjsRect1055"></rect><rect fill="red" y="55" x="855" height="90" width="40" id="SvgjsRect1056"></rect><rect fill="red" y="105" x="855" height="40" width="90" id="SvgjsRect1057"></rect><rect fill="pink" y="100" x="750" height="100" width="100" id="SvgjsRect1058"></rect><rect fill="red" y="105" x="755" height="90" width="90" id="SvgjsRect1059"></rect><rect fill="pink" y="0" x="750" height="100" width="50" id="SvgjsRect1060"></rect><rect fill="pink" y="0" x="650" height="50" width="150" id="SvgjsRect1061"></rect><rect fill="red" y="5" x="755" height="90" width="40" id="SvgjsRect1062"></rect><rect fill="red" y="5" x="655" height="40" width="140" id="SvgjsRect1063"></rect><rect fill="pink" y="50" x="700" height="150" width="50" id="SvgjsRect1064"></rect><rect fill="pink" y="50" x="650" height="50" width="100" id="SvgjsRect1065"></rect><rect fill="red" y="55" x="705" height="140" width="40" id="SvgjsRect1066"></rect><rect fill="red" y="55" x="655" height="40" width="90" id="SvgjsRect1067"></rect><rect fill="pink" y="200" x="700" height="50" width="150" id="SvgjsRect1068"></rect><rect fill="pink" y="200" x="750" height="100" width="50" id="SvgjsRect1069"></rect><rect fill="red" y="205" x="705" height="40" width="140" id="SvgjsRect1070"></rect><rect fill="red" y="205" x="755" height="90" width="40" id="SvgjsRect1071"></rect><rect fill="pink" y="300" x="750" height="100" width="100" id="SvgjsRect1072"></rect><rect fill="red" y="305" x="755" height="90" width="90" id="SvgjsRect1073"></rect><rect fill="pink" y="400" x="700" height="100" width="100" id="SvgjsRect1074"></rect><rect fill="red" y="405" x="705" height="90" width="90" id="SvgjsRect1075"></rect><rect fill="pink" y="450" x="650" height="150" width="50" id="SvgjsRect1076"></rect><rect fill="pink" y="500" x="650" height="50" width="100" id="SvgjsRect1077"></rect><rect fill="red" y="455" x="655" height="140" width="40" id="SvgjsRect1078"></rect><rect fill="red" y="505" x="655" height="40" width="90" id="SvgjsRect1079"></rect><rect fill="pink" y="450" x="600" height="150" width="50" id="SvgjsRect1080"></rect><rect fill="pink" y="500" x="550" height="50" width="100" id="SvgjsRect1081"></rect><rect fill="red" y="455" x="605" height="140" width="40" id="SvgjsRect1082"></rect><rect fill="red" y="505" x="555" height="40" width="90" id="SvgjsRect1083"></rect><rect fill="pink" y="550" x="550" height="150" width="50" id="SvgjsRect1084"></rect><rect fill="pink" y="600" x="550" height="50" width="100" id="SvgjsRect1085"></rect><rect fill="red" y="555" x="555" height="140" width="40" id="SvgjsRect1086"></rect><rect fill="red" y="605" x="555" height="40" width="90" id="SvgjsRect1087"></rect><rect fill="pink" y="550" x="500" height="150" width="50" id="SvgjsRect1088"></rect><rect fill="pink" y="650" x="450" height="50" width="100" id="SvgjsRect1089"></rect><rect fill="red" y="555" x="505" height="140" width="40" id="SvgjsRect1090"></rect><rect fill="red" y="655" x="455" height="40" width="90" id="SvgjsRect1091"></rect><rect fill="pink" y="700" x="450" height="50" width="150" id="SvgjsRect1092"></rect><rect fill="pink" y="700" x="500" height="100" width="50" id="SvgjsRect1093"></rect><rect fill="red" y="705" x="455" height="40" width="140" id="SvgjsRect1094"></rect><rect fill="red" y="705" x="505" height="90" width="40" id="SvgjsRect1095"></rect><rect fill="pink" y="750" x="400" height="100" width="100" id="SvgjsRect1096"></rect><rect fill="red" y="755" x="405" height="90" width="90" id="SvgjsRect1097"></rect><rect fill="pink" y="800" x="300" height="100" width="100" id="SvgjsRect1098"></rect><rect fill="red" y="805" x="305" height="90" width="90" id="SvgjsRect1099"></rect><rect fill="pink" y="750" x="250" height="100" width="50" id="SvgjsRect1100"></rect><rect fill="pink" y="750" x="250" height="50" width="100" id="SvgjsRect1101"></rect><rect fill="pink" y="700" x="300" height="100" width="50" id="SvgjsRect1102"></rect><rect fill="red" y="755" x="255" height="90" width="40" id="SvgjsRect1103"></rect><rect fill="red" y="755" x="255" height="40" width="90" id="SvgjsRect1104"></rect><rect fill="red" y="705" x="305" height="90" width="40" id="SvgjsRect1105"></rect><rect fill="pink" y="650" x="200" height="100" width="100" id="SvgjsRect1106"></rect><rect fill="red" y="655" x="205" height="90" width="90" id="SvgjsRect1107"></rect><rect fill="pink" y="600" x="150" height="100" width="50" id="SvgjsRect1108"></rect><rect fill="pink" y="600" x="150" height="50" width="100" id="SvgjsRect1109"></rect><rect fill="pink" y="550" x="200" height="100" width="50" id="SvgjsRect1110"></rect><rect fill="red" y="605" x="155" height="90" width="40" id="SvgjsRect1111"></rect><rect fill="red" y="605" x="155" height="40" width="90" id="SvgjsRect1112"></rect><rect fill="red" y="555" x="205" height="90" width="40" id="SvgjsRect1113"></rect><rect fill="pink" y="550" x="100" height="100" width="50" id="SvgjsRect1114"></rect><rect fill="pink" y="550" x="100" height="50" width="100" id="SvgjsRect1115"></rect><rect fill="pink" y="500" x="150" height="100" width="50" id="SvgjsRect1116"></rect><rect fill="red" y="555" x="105" height="90" width="40" id="SvgjsRect1117"></rect><rect fill="red" y="555" x="105" height="40" width="90" id="SvgjsRect1118"></rect><rect fill="red" y="505" x="155" height="90" width="40" id="SvgjsRect1119"></rect><rect fill="pink" y="450" x="50" height="150" width="50" id="SvgjsRect1120"></rect><rect fill="pink" y="500" x="50" height="50" width="100" id="SvgjsRect1121"></rect><rect fill="red" y="455" x="55" height="140" width="40" id="SvgjsRect1122"></rect><rect fill="red" y="505" x="55" height="40" width="90" id="SvgjsRect1123"></rect><rect fill="pink" y="400" x="50" height="50" width="100" id="SvgjsRect1124"></rect><rect fill="pink" y="400" x="100" height="100" width="50" id="SvgjsRect1125"></rect><rect fill="pink" y="450" x="100" height="50" width="100" id="SvgjsRect1126"></rect><rect fill="red" y="405" x="55" height="40" width="90" id="SvgjsRect1127"></rect><rect fill="red" y="405" x="105" height="90" width="40" id="SvgjsRect1128"></rect><rect fill="red" y="455" x="105" height="40" width="90" id="SvgjsRect1129"></rect><rect fill="pink" y="250" x="100" height="50" width="100" id="SvgjsRect1130"></rect><rect fill="pink" y="250" x="100" height="100" width="50" id="SvgjsRect1131"></rect><rect fill="pink" y="300" x="50" height="50" width="100" id="SvgjsRect1132"></rect><rect fill="red" y="255" x="105" height="40" width="90" id="SvgjsRect1133"></rect><rect fill="red" y="255" x="105" height="90" width="40" id="SvgjsRect1134"></rect><rect fill="red" y="305" x="55" height="40" width="90" id="SvgjsRect1135"></rect><rect fill="pink" y="300" x="0" height="100" width="50" id="SvgjsRect1136"></rect><rect fill="pink" y="350" x="0" height="50" width="150" id="SvgjsRect1137"></rect><rect fill="red" y="305" x="5" height="90" width="40" id="SvgjsRect1138"></rect><rect fill="red" y="355" x="5" height="40" width="140" id="SvgjsRect1139"></rect><rect fill="pink" y="200" x="50" height="50" width="100" id="SvgjsRect1140"></rect><rect fill="pink" y="200" x="50" height="100" width="50" id="SvgjsRect1141"></rect><rect fill="pink" y="250" x="0" height="50" width="100" id="SvgjsRect1142"></rect><rect fill="red" y="205" x="55" height="40" width="90" id="SvgjsRect1143"></rect><rect fill="red" y="205" x="55" height="90" width="40" id="SvgjsRect1144"></rect><rect fill="red" y="255" x="5" height="40" width="90" id="SvgjsRect1145"></rect><rect fill="pink" y="100" x="50" height="100" width="50" id="SvgjsRect1146"></rect><rect fill="pink" y="150" x="50" height="50" width="150" id="SvgjsRect1147"></rect><rect fill="red" y="105" x="55" height="90" width="40" id="SvgjsRect1148"></rect><rect fill="red" y="155" x="55" height="40" width="140" id="SvgjsRect1149"></rect><rect fill="pink" y="100" x="200" height="150" width="50" id="SvgjsRect1150"></rect><rect fill="pink" y="200" x="150" height="50" width="100" id="SvgjsRect1151"></rect><rect fill="red" y="105" x="205" height="140" width="40" id="SvgjsRect1152"></rect><rect fill="red" y="205" x="155" height="40" width="90" id="SvgjsRect1153"></rect><rect fill="pink" y="50" x="250" height="150" width="50" id="SvgjsRect1154"></rect><rect fill="pink" y="50" x="200" height="50" width="100" id="SvgjsRect1155"></rect><rect fill="red" y="55" x="255" height="140" width="40" id="SvgjsRect1156"></rect><rect fill="red" y="55" x="205" height="40" width="90" id="SvgjsRect1157"></rect><rect fill="pink" y="50" x="100" height="100" width="100" id="SvgjsRect1158"></rect><rect fill="red" y="55" x="105" height="90" width="90" id="SvgjsRect1159"></rect></svg>
